<svg xmlns="http://www.w3.org/2000/svg" viewBox="0 0 482.35 556.97"><defs><style>.a{fill:none;stroke:#b98747;stroke-miterlimit:10;stroke-width:16px;fill-rule:evenodd;}.b{fill:#b98747;}</style></defs><title>dcu2017</title><polygon class="a" points="8 413.11 8 143.86 241.18 9.24 474.35 143.86 474.35 413.11 241.18 547.73 8 413.11"/><path class="b" d="M426.67,391.39l-128.1-.26-128,.26a128,128,0,0,0,256.08,0Z" transform="translate(-57.39 -66.27)"/><polygon class="b" points="366.88 306.37 358.08 279.68 124.48 279.67 115.61 306.37 366.88 306.37"/><polygon class="b" points="334.43 232.82 148.3 232.82 133.74 259.52 348.88 259.52 334.43 232.82"/><polygon class="b" points="241.69 102.19 220.52 128.52 262.75 128.52 241.69 102.19"/><polygon class="b" points="304.68 185.97 178.25 185.97 160.59 212.66 322.22 212.66 304.68 185.97"/><polygon class="b" points="273.08 143.03 210.08 143.02 191.96 167.96 291.38 167.96 273.08 143.03"/></svg>